<svg width="410" height="100" viewBox="0 0 410 100" fill="none" xmlns="http://www.w3.org/2000/svg">
<g filter="url(#filter0_d_128_118)">
<path d="M16 0H4V92H16V0Z" fill="#F16D7F"/>
<path d="M60.512 19.5617H50.672V48.0977H42.56V19.5617H32.72V13.1297H60.512V19.5617ZM95.162 13.1297V48.0977H87.002V33.3137H72.794V48.0977H64.634V13.1297H72.794V27.7457H87.002V13.1297H95.162ZM110.107 19.3697V27.5297H121.099V33.5297H110.107V41.8577H124.458V48.0977H101.947V13.1297H124.458V19.3697H110.107ZM154.396 41.9777C155.468 41.9777 156.34 41.8417 157.012 41.5697C157.7 41.2977 158.236 40.9457 158.62 40.5137C159.004 40.0817 159.268 39.5937 159.412 39.0497C159.556 38.5057 159.628 37.9537 159.628 37.3937C159.628 36.7537 159.54 36.1777 159.364 35.6657C159.204 35.1537 158.916 34.7217 158.5 34.3697C158.1 34.0177 157.564 33.7457 156.892 33.5537C156.22 33.3617 155.372 33.2657 154.348 33.2657H148.684V41.9777H154.396ZM148.684 19.2017V27.8417H152.908C153.804 27.8417 154.612 27.7777 155.332 27.6497C156.052 27.5217 156.66 27.2977 157.156 26.9777C157.668 26.6577 158.052 26.2177 158.308 25.6577C158.58 25.0977 158.716 24.3937 158.716 23.5457C158.716 22.7137 158.612 22.0257 158.404 21.4817C158.196 20.9217 157.876 20.4737 157.444 20.1377C157.012 19.8017 156.46 19.5617 155.788 19.4177C155.132 19.2737 154.348 19.2017 153.436 19.2017H148.684ZM153.436 13.1297C155.852 13.1297 157.908 13.3537 159.604 13.8017C161.3 14.2497 162.684 14.8817 163.755 15.6977C164.828 16.5137 165.604 17.5057 166.084 18.6737C166.58 19.8417 166.828 21.1457 166.828 22.5857C166.828 23.3697 166.716 24.1297 166.492 24.8657C166.268 25.5857 165.916 26.2657 165.436 26.9057C164.956 27.5297 164.34 28.1057 163.588 28.6337C162.836 29.1617 161.932 29.6177 160.876 30.0017C163.18 30.5617 164.884 31.4657 165.988 32.7137C167.092 33.9617 167.644 35.5777 167.644 37.5617C167.644 39.0497 167.356 40.4337 166.78 41.7137C166.204 42.9937 165.356 44.1137 164.236 45.0737C163.132 46.0177 161.764 46.7617 160.132 47.3057C158.5 47.8337 156.636 48.0977 154.54 48.0977H140.572V13.1297H153.436ZM184.104 29.5697C185.208 29.5697 186.144 29.4337 186.912 29.1617C187.696 28.8737 188.336 28.4817 188.832 27.9857C189.328 27.4897 189.688 26.9137 189.912 26.2577C190.136 25.5857 190.248 24.8657 190.248 24.0977C190.248 22.5617 189.744 21.3617 188.736 20.4977C187.744 19.6337 186.2 19.2017 184.104 19.2017H180.84V29.5697H184.104ZM201.336 48.0977H193.992C192.632 48.0977 191.656 47.5857 191.064 46.5617L185.256 36.4097C184.984 35.9777 184.68 35.6657 184.344 35.4737C184.008 35.2657 183.528 35.1617 182.904 35.1617H180.84V48.0977H172.728V13.1297H184.104C186.632 13.1297 188.784 13.3937 190.56 13.9217C192.352 14.4337 193.808 15.1537 194.928 16.0817C196.064 17.0097 196.888 18.1057 197.4 19.3697C197.912 20.6337 198.168 22.0097 198.168 23.4977C198.168 24.6337 198.016 25.7057 197.712 26.7137C197.408 27.7217 196.96 28.6577 196.368 29.5217C195.776 30.3697 195.04 31.1297 194.16 31.8017C193.296 32.4737 192.296 33.0257 191.16 33.4577C191.688 33.7297 192.184 34.0737 192.648 34.4897C193.112 34.8897 193.528 35.3697 193.896 35.9297L201.336 48.0977ZM222.755 34.7297L219.515 25.1537C219.275 24.5457 219.019 23.8337 218.747 23.0177C218.475 22.1857 218.203 21.2897 217.931 20.3297C217.691 21.3057 217.435 22.2097 217.163 23.0417C216.891 23.8737 216.635 24.5937 216.395 25.2017L213.179 34.7297H222.755ZM235.643 48.0977H229.355C228.651 48.0977 228.083 47.9377 227.651 47.6177C227.219 47.2817 226.891 46.8577 226.667 46.3457L224.603 40.2497H211.307L209.243 46.3457C209.067 46.7937 208.747 47.2017 208.283 47.5697C207.835 47.9217 207.275 48.0977 206.603 48.0977H200.267L213.803 13.1297H222.107L235.643 48.0977ZM268.928 13.1297V48.0977H264.704C264.08 48.0977 263.552 48.0017 263.12 47.8097C262.704 47.6017 262.288 47.2497 261.872 46.7537L245.384 25.8977C245.448 26.5217 245.488 27.1297 245.504 27.7217C245.536 28.2977 245.552 28.8417 245.552 29.3537V48.0977H238.4V13.1297H242.672C243.024 13.1297 243.32 13.1457 243.56 13.1777C243.8 13.2097 244.016 13.2737 244.208 13.3697C244.4 13.4497 244.584 13.5697 244.76 13.7297C244.936 13.8897 245.136 14.1057 245.36 14.3777L261.992 35.3777C261.912 34.7057 261.856 34.0577 261.824 33.4337C261.792 32.7937 261.776 32.1937 261.776 31.6337V13.1297H268.928ZM307.44 30.6017C307.44 33.1297 307 35.4657 306.12 37.6097C305.256 39.7377 304.032 41.5857 302.448 43.1537C300.864 44.7057 298.952 45.9217 296.712 46.8017C294.488 47.6657 292.016 48.0977 289.296 48.0977H275.712V13.1297H289.296C292.016 13.1297 294.488 13.5697 296.712 14.4497C298.952 15.3297 300.864 16.5457 302.448 18.0977C304.032 19.6497 305.256 21.4977 306.12 23.6417C307 25.7697 307.44 28.0897 307.44 30.6017ZM299.136 30.6017C299.136 28.8737 298.912 27.3137 298.464 25.9217C298.016 24.5297 297.368 23.3537 296.52 22.3937C295.688 21.4177 294.664 20.6737 293.448 20.1617C292.232 19.6337 290.848 19.3697 289.296 19.3697H283.872V41.8577H289.296C290.848 41.8577 292.232 41.6017 293.448 41.0897C294.664 40.5617 295.688 39.8177 296.52 38.8577C297.368 37.8817 298.016 36.6977 298.464 35.3057C298.912 33.9137 299.136 32.3457 299.136 30.6017ZM56.64 74.5297C56.64 76.2257 56.3573 77.799 55.792 79.2497C55.2373 80.6897 54.448 81.9377 53.424 82.9937C52.4 84.0497 51.168 84.8763 49.728 85.4737C48.288 86.0603 46.688 86.3537 44.928 86.3537C43.1787 86.3537 41.584 86.0603 40.144 85.4737C38.704 84.8763 37.4667 84.0497 36.432 82.9937C35.408 81.9377 34.6133 80.6897 34.048 79.2497C33.4827 77.799 33.2 76.2257 33.2 74.5297C33.2 72.8337 33.4827 71.2657 34.048 69.8257C34.6133 68.375 35.408 67.1217 36.432 66.0657C37.4667 65.0097 38.704 64.1883 40.144 63.6017C41.584 63.0043 43.1787 62.7057 44.928 62.7057C46.1013 62.7057 47.2053 62.8443 48.24 63.1217C49.2747 63.3883 50.224 63.7723 51.088 64.2737C51.952 64.7643 52.7253 65.367 53.408 66.0817C54.1013 66.7857 54.688 67.575 55.168 68.4497C55.648 69.3243 56.0107 70.2737 56.256 71.2977C56.512 72.3217 56.64 73.399 56.64 74.5297ZM52.24 74.5297C52.24 73.2603 52.0693 72.1243 51.728 71.1217C51.3867 70.1083 50.9013 69.2497 50.272 68.5457C49.6427 67.8417 48.8747 67.303 47.968 66.9297C47.072 66.5563 46.0587 66.3697 44.928 66.3697C43.7973 66.3697 42.7787 66.5563 41.872 66.9297C40.976 67.303 40.208 67.8417 39.568 68.5457C38.9387 69.2497 38.4533 70.1083 38.112 71.1217C37.7707 72.1243 37.6 73.2603 37.6 74.5297C37.6 75.799 37.7707 76.9403 38.112 77.9537C38.4533 78.9563 38.9387 79.8097 39.568 80.5137C40.208 81.207 40.976 81.7403 41.872 82.1137C42.7787 82.487 43.7973 82.6737 44.928 82.6737C46.0587 82.6737 47.072 82.487 47.968 82.1137C48.8747 81.7403 49.6427 81.207 50.272 80.5137C50.9013 79.8097 51.3867 78.9563 51.728 77.9537C52.0693 76.9403 52.24 75.799 52.24 74.5297ZM64.7398 66.3857V73.2337H73.4118V76.6737H64.7398V86.0977H60.4198V62.9617H75.0118V66.3857H64.7398ZM99.0968 82.5457V86.0977H85.5448V62.9617H89.8488V82.5457H99.0968ZM110.857 82.6257C111.689 82.6257 112.43 82.487 113.081 82.2097C113.742 81.9323 114.297 81.543 114.745 81.0417C115.193 80.5403 115.534 79.9323 115.769 79.2177C116.014 78.503 116.137 77.703 116.137 76.8177V62.9617H120.441V76.8177C120.441 78.1937 120.217 79.4683 119.769 80.6417C119.331 81.8043 118.697 82.8123 117.865 83.6657C117.043 84.5083 116.041 85.1697 114.857 85.6497C113.673 86.119 112.339 86.3537 110.857 86.3537C109.363 86.3537 108.025 86.119 106.841 85.6497C105.657 85.1697 104.649 84.5083 103.817 83.6657C102.995 82.8123 102.361 81.8043 101.913 80.6417C101.475 79.4683 101.257 78.1937 101.257 76.8177V62.9617H105.561V76.8017C105.561 77.687 105.678 78.487 105.913 79.2017C106.158 79.9163 106.505 80.5297 106.953 81.0417C107.411 81.543 107.966 81.9323 108.617 82.2097C109.278 82.487 110.025 82.6257 110.857 82.6257ZM144.095 86.0977H139.807C139.508 86.0977 139.268 86.023 139.087 85.8737C138.916 85.7243 138.777 85.5537 138.671 85.3617L133.311 76.4817C133.225 76.7483 133.124 76.9777 133.007 77.1697L127.871 85.3617C127.743 85.543 127.593 85.7137 127.423 85.8737C127.263 86.023 127.049 86.0977 126.783 86.0977H122.767L130.447 74.1937L123.071 62.9617H127.359C127.657 62.9617 127.871 63.0043 127.999 63.0897C128.137 63.1643 128.265 63.2923 128.383 63.4737L133.647 71.9537C133.753 71.687 133.881 71.4203 134.031 71.1537L138.863 63.5537C138.98 63.351 139.108 63.2017 139.247 63.1057C139.385 63.0097 139.561 62.9617 139.775 62.9617H143.887L136.447 74.0177L144.095 86.0977ZM151.084 66.3857V72.8017H159.18V76.1137H151.084V82.6577H161.356V86.0977H146.764V62.9617H161.356V66.3857H151.084ZM172.162 73.9697C172.972 73.9697 173.676 73.8683 174.274 73.6657C174.882 73.463 175.378 73.1857 175.762 72.8337C176.156 72.471 176.45 72.0443 176.642 71.5537C176.834 71.063 176.93 70.5243 176.93 69.9377C176.93 68.7643 176.54 67.863 175.762 67.2337C174.994 66.6043 173.815 66.2897 172.226 66.2897H169.474V73.9697H172.162ZM183.234 86.0977H179.346C178.61 86.0977 178.076 85.8097 177.746 85.2337L172.882 77.8257C172.7 77.5483 172.498 77.351 172.274 77.2337C172.06 77.1163 171.74 77.0577 171.314 77.0577H169.474V86.0977H165.17V62.9617H172.226C173.794 62.9617 175.138 63.127 176.258 63.4577C177.388 63.7777 178.311 64.231 179.026 64.8177C179.751 65.4043 180.284 66.1083 180.626 66.9297C180.967 67.7403 181.138 68.6363 181.138 69.6177C181.138 70.3963 181.02 71.1323 180.786 71.8257C180.562 72.519 180.231 73.1483 179.794 73.7137C179.367 74.279 178.834 74.775 178.194 75.2017C177.564 75.6283 176.844 75.9643 176.034 76.2097C176.311 76.3697 176.567 76.5617 176.802 76.7857C177.036 76.999 177.25 77.255 177.442 77.5537L183.234 86.0977ZM190.052 86.0977H185.732V62.9617H190.052V86.0977ZM217.296 74.5297C217.296 76.2257 217.014 77.799 216.448 79.2497C215.894 80.6897 215.104 81.9377 214.08 82.9937C213.056 84.0497 211.824 84.8763 210.384 85.4737C208.944 86.0603 207.344 86.3537 205.584 86.3537C203.835 86.3537 202.24 86.0603 200.8 85.4737C199.36 84.8763 198.123 84.0497 197.088 82.9937C196.064 81.9377 195.27 80.6897 194.704 79.2497C194.139 77.799 193.856 76.2257 193.856 74.5297C193.856 72.8337 194.139 71.2657 194.704 69.8257C195.27 68.375 196.064 67.1217 197.088 66.0657C198.123 65.0097 199.36 64.1883 200.8 63.6017C202.24 63.0043 203.835 62.7057 205.584 62.7057C206.758 62.7057 207.862 62.8443 208.896 63.1217C209.931 63.3883 210.88 63.7723 211.744 64.2737C212.608 64.7643 213.382 65.367 214.064 66.0817C214.758 66.7857 215.344 67.575 215.824 68.4497C216.304 69.3243 216.667 70.2737 216.912 71.2977C217.168 72.3217 217.296 73.399 217.296 74.5297ZM212.896 74.5297C212.896 73.2603 212.726 72.1243 212.384 71.1217C212.043 70.1083 211.558 69.2497 210.928 68.5457C210.299 67.8417 209.531 67.303 208.624 66.9297C207.728 66.5563 206.715 66.3697 205.584 66.3697C204.454 66.3697 203.435 66.5563 202.528 66.9297C201.632 67.303 200.864 67.8417 200.224 68.5457C199.595 69.2497 199.11 70.1083 198.768 71.1217C198.427 72.1243 198.256 73.2603 198.256 74.5297C198.256 75.799 198.427 76.9403 198.768 77.9537C199.11 78.9563 199.595 79.8097 200.224 80.5137C200.864 81.207 201.632 81.7403 202.528 82.1137C203.435 82.487 204.454 82.6737 205.584 82.6737C206.715 82.6737 207.728 82.487 208.624 82.1137C209.531 81.7403 210.299 81.207 210.928 80.5137C211.558 79.8097 212.043 78.9563 212.384 77.9537C212.726 76.9403 212.896 75.799 212.896 74.5297ZM230.388 82.6257C231.22 82.6257 231.961 82.487 232.612 82.2097C233.273 81.9323 233.828 81.543 234.276 81.0417C234.724 80.5403 235.065 79.9323 235.3 79.2177C235.545 78.503 235.668 77.703 235.668 76.8177V62.9617H239.972V76.8177C239.972 78.1937 239.748 79.4683 239.3 80.6417C238.863 81.8043 238.228 82.8123 237.396 83.6657C236.575 84.5083 235.572 85.1697 234.388 85.6497C233.204 86.119 231.871 86.3537 230.388 86.3537C228.895 86.3537 227.556 86.119 226.372 85.6497C225.188 85.1697 224.18 84.5083 223.348 83.6657C222.527 82.8123 221.892 81.8043 221.444 80.6417C221.007 79.4683 220.788 78.1937 220.788 76.8177V62.9617H225.092V76.8017C225.092 77.687 225.209 78.487 225.444 79.2017C225.689 79.9163 226.036 80.5297 226.484 81.0417C226.943 81.543 227.497 81.9323 228.148 82.2097C228.809 82.487 229.556 82.6257 230.388 82.6257ZM257.146 67.1697C257.018 67.3937 256.879 67.559 256.73 67.6657C256.591 67.7617 256.415 67.8097 256.202 67.8097C255.978 67.8097 255.733 67.7297 255.466 67.5697C255.21 67.399 254.901 67.2123 254.538 67.0097C254.175 66.807 253.749 66.6257 253.258 66.4657C252.778 66.295 252.207 66.2097 251.546 66.2097C250.949 66.2097 250.426 66.2843 249.978 66.4337C249.53 66.5723 249.151 66.7697 248.842 67.0257C248.543 67.2817 248.319 67.591 248.17 67.9537C248.021 68.3057 247.946 68.695 247.946 69.1217C247.946 69.6657 248.095 70.119 248.394 70.4817C248.703 70.8443 249.109 71.1537 249.61 71.4097C250.111 71.6657 250.682 71.895 251.322 72.0977C251.962 72.3003 252.618 72.519 253.29 72.7537C253.962 72.9777 254.618 73.2443 255.258 73.5537C255.898 73.8523 256.469 74.2363 256.97 74.7057C257.471 75.1643 257.871 75.7297 258.17 76.4017C258.479 77.0737 258.634 77.8897 258.634 78.8497C258.634 79.895 258.453 80.8763 258.09 81.7937C257.738 82.7003 257.215 83.495 256.522 84.1777C255.839 84.8497 255.002 85.383 254.01 85.7777C253.018 86.1617 251.882 86.3537 250.602 86.3537C249.866 86.3537 249.141 86.279 248.426 86.1297C247.711 85.991 247.023 85.7883 246.362 85.5217C245.711 85.255 245.098 84.935 244.522 84.5617C243.946 84.1883 243.434 83.7723 242.986 83.3137L244.25 81.2497C244.357 81.1003 244.495 80.9777 244.666 80.8817C244.837 80.775 245.018 80.7217 245.21 80.7217C245.477 80.7217 245.765 80.8337 246.074 81.0577C246.383 81.271 246.751 81.511 247.178 81.7777C247.605 82.0443 248.101 82.2897 248.666 82.5137C249.242 82.727 249.93 82.8337 250.73 82.8337C251.957 82.8337 252.906 82.5457 253.578 81.9697C254.25 81.383 254.586 80.5457 254.586 79.4577C254.586 78.8497 254.431 78.3537 254.122 77.9697C253.823 77.5857 253.423 77.2657 252.922 77.0097C252.421 76.743 251.85 76.519 251.21 76.3377C250.57 76.1563 249.919 75.959 249.258 75.7457C248.597 75.5323 247.946 75.2763 247.306 74.9777C246.666 74.679 246.095 74.2897 245.594 73.8097C245.093 73.3297 244.687 72.7323 244.378 72.0177C244.079 71.2923 243.93 70.4017 243.93 69.3457C243.93 68.503 244.095 67.6817 244.426 66.8817C244.767 66.0817 245.258 65.3723 245.898 64.7537C246.538 64.135 247.327 63.639 248.266 63.2657C249.205 62.8923 250.282 62.7057 251.498 62.7057C252.863 62.7057 254.122 62.919 255.274 63.3457C256.426 63.7723 257.407 64.3697 258.218 65.1377L257.146 67.1697Z" fill="#222222"/>
<path d="M274.49 66.3857V73.2337H283.162V76.6737H274.49V86.0977H270.17V62.9617H284.762V66.3857H274.49ZM298.613 77.3617L295.797 69.6657C295.658 69.3243 295.514 68.919 295.365 68.4497C295.215 67.9803 295.066 67.4737 294.917 66.9297C294.778 67.4737 294.634 67.9857 294.485 68.4657C294.335 68.935 294.191 69.3457 294.053 69.6977L291.253 77.3617H298.613ZM306.213 86.0977H302.885C302.511 86.0977 302.207 86.007 301.973 85.8257C301.738 85.6337 301.562 85.399 301.444 85.1217L299.717 80.4017H290.133L288.405 85.1217C288.319 85.367 288.154 85.591 287.909 85.7937C287.663 85.9963 287.359 86.0977 286.997 86.0977H283.636L292.741 62.9617H297.125L306.213 86.0977ZM320.927 67.1697C320.799 67.3937 320.661 67.559 320.511 67.6657C320.373 67.7617 320.197 67.8097 319.983 67.8097C319.759 67.8097 319.514 67.7297 319.247 67.5697C318.991 67.399 318.682 67.2123 318.319 67.0097C317.957 66.807 317.53 66.6257 317.039 66.4657C316.559 66.295 315.989 66.2097 315.327 66.2097C314.73 66.2097 314.207 66.2843 313.759 66.4337C313.311 66.5723 312.933 66.7697 312.623 67.0257C312.325 67.2817 312.101 67.591 311.951 67.9537C311.802 68.3057 311.727 68.695 311.727 69.1217C311.727 69.6657 311.877 70.119 312.175 70.4817C312.485 70.8443 312.89 71.1537 313.391 71.4097C313.893 71.6657 314.463 71.895 315.103 72.0977C315.743 72.3003 316.399 72.519 317.071 72.7537C317.743 72.9777 318.399 73.2443 319.039 73.5537C319.679 73.8523 320.25 74.2363 320.751 74.7057C321.253 75.1643 321.653 75.7297 321.951 76.4017C322.261 77.0737 322.415 77.8897 322.415 78.8497C322.415 79.895 322.234 80.8763 321.871 81.7937C321.519 82.7003 320.997 83.495 320.303 84.1777C319.621 84.8497 318.783 85.383 317.791 85.7777C316.799 86.1617 315.663 86.3537 314.383 86.3537C313.647 86.3537 312.922 86.279 312.207 86.1297C311.493 85.991 310.805 85.7883 310.143 85.5217C309.493 85.255 308.879 84.935 308.303 84.5617C307.727 84.1883 307.215 83.7723 306.767 83.3137L308.031 81.2497C308.138 81.1003 308.277 80.9777 308.447 80.8817C308.618 80.775 308.799 80.7217 308.991 80.7217C309.258 80.7217 309.546 80.8337 309.855 81.0577C310.165 81.271 310.533 81.511 310.959 81.7777C311.386 82.0443 311.882 82.2897 312.447 82.5137C313.023 82.727 313.711 82.8337 314.511 82.8337C315.738 82.8337 316.687 82.5457 317.359 81.9697C318.031 81.383 318.367 80.5457 318.367 79.4577C318.367 78.8497 318.213 78.3537 317.903 77.9697C317.605 77.5857 317.205 77.2657 316.703 77.0097C316.202 76.743 315.631 76.519 314.991 76.3377C314.351 76.1563 313.701 75.959 313.039 75.7457C312.378 75.5323 311.727 75.2763 311.087 74.9777C310.447 74.679 309.877 74.2897 309.375 73.8097C308.874 73.3297 308.469 72.7323 308.159 72.0177C307.861 71.2923 307.711 70.4017 307.711 69.3457C307.711 68.503 307.877 67.6817 308.207 66.8817C308.549 66.0817 309.039 65.3723 309.679 64.7537C310.319 64.135 311.109 63.639 312.047 63.2657C312.986 62.8923 314.063 62.7057 315.279 62.7057C316.645 62.7057 317.903 62.919 319.055 63.3457C320.207 63.7723 321.189 64.3697 321.999 65.1377L320.927 67.1697ZM345.674 62.9617V86.0977H341.354V75.9857H330.49V86.0977H326.17V62.9617H330.49V72.9137H341.354V62.9617H345.674ZM355.146 86.0977H350.826V62.9617H355.146V86.0977ZM382.39 74.5297C382.39 76.2257 382.107 77.799 381.542 79.2497C380.987 80.6897 380.198 81.9377 379.174 82.9937C378.15 84.0497 376.918 84.8763 375.478 85.4737C374.038 86.0603 372.438 86.3537 370.678 86.3537C368.929 86.3537 367.334 86.0603 365.894 85.4737C364.454 84.8763 363.217 84.0497 362.182 82.9937C361.158 81.9377 360.363 80.6897 359.798 79.2497C359.233 77.799 358.95 76.2257 358.95 74.5297C358.95 72.8337 359.233 71.2657 359.798 69.8257C360.363 68.375 361.158 67.1217 362.182 66.0657C363.217 65.0097 364.454 64.1883 365.894 63.6017C367.334 63.0043 368.929 62.7057 370.678 62.7057C371.851 62.7057 372.955 62.8443 373.99 63.1217C375.025 63.3883 375.974 63.7723 376.838 64.2737C377.702 64.7643 378.475 65.367 379.158 66.0817C379.851 66.7857 380.438 67.575 380.918 68.4497C381.398 69.3243 381.761 70.2737 382.006 71.2977C382.262 72.3217 382.39 73.399 382.39 74.5297ZM377.99 74.5297C377.99 73.2603 377.819 72.1243 377.478 71.1217C377.137 70.1083 376.651 69.2497 376.022 68.5457C375.393 67.8417 374.625 67.303 373.718 66.9297C372.822 66.5563 371.809 66.3697 370.678 66.3697C369.547 66.3697 368.529 66.5563 367.622 66.9297C366.726 67.303 365.958 67.8417 365.318 68.5457C364.689 69.2497 364.203 70.1083 363.862 71.1217C363.521 72.1243 363.35 73.2603 363.35 74.5297C363.35 75.799 363.521 76.9403 363.862 77.9537C364.203 78.9563 364.689 79.8097 365.318 80.5137C365.958 81.207 366.726 81.7403 367.622 82.1137C368.529 82.487 369.547 82.6737 370.678 82.6737C371.809 82.6737 372.822 82.487 373.718 82.1137C374.625 81.7403 375.393 81.207 376.022 80.5137C376.651 79.8097 377.137 78.9563 377.478 77.9537C377.819 76.9403 377.99 75.799 377.99 74.5297ZM405.674 62.9617V86.0977H403.466C403.124 86.0977 402.836 86.0443 402.602 85.9377C402.378 85.8203 402.159 85.6283 401.946 85.3617L389.866 69.9377C389.93 70.6417 389.962 71.2923 389.962 71.8897V86.0977H386.17V62.9617H388.426C388.607 62.9617 388.762 62.9723 388.89 62.9937C389.028 63.0043 389.146 63.0363 389.242 63.0897C389.348 63.1323 389.45 63.2017 389.546 63.2977C389.642 63.383 389.748 63.5003 389.866 63.6497L401.994 79.1377C401.962 78.7643 401.935 78.3963 401.914 78.0337C401.892 77.671 401.882 77.335 401.882 77.0257V62.9617H405.674Z" fill="#F16D7F"/>
</g>
<defs>
<filter id="filter0_d_128_118" x="0" y="0" width="409.674" height="100" filterUnits="userSpaceOnUse" color-interpolation-filters="sRGB">
<feFlood flood-opacity="0" result="BackgroundImageFix"/>
<feColorMatrix in="SourceAlpha" type="matrix" values="0 0 0 0 0 0 0 0 0 0 0 0 0 0 0 0 0 0 127 0" result="hardAlpha"/>
<feOffset dy="4"/>
<feGaussianBlur stdDeviation="2"/>
<feComposite in2="hardAlpha" operator="out"/>
<feColorMatrix type="matrix" values="0 0 0 0 0 0 0 0 0 0 0 0 0 0 0 0 0 0 0.25 0"/>
<feBlend mode="normal" in2="BackgroundImageFix" result="effect1_dropShadow_128_118"/>
<feBlend mode="normal" in="SourceGraphic" in2="effect1_dropShadow_128_118" result="shape"/>
</filter>
</defs>
</svg>
